<svg width="46" height="46" viewBox="0 0 46 46" fill="none" xmlns="http://www.w3.org/2000/svg">
<circle cx="23" cy="23" r="23" fill="#262D37"/>
<path fill-rule="evenodd" clip-rule="evenodd" d="M15 31.7986V26.5631C15 25.0728 16.2094 23.8646 17.7012 23.8646H24.4543" fill="black" fill-opacity="0.01"/>
<path d="M15 31.7986V26.5631C15 25.0728 16.2094 23.8646 17.7012 23.8646H24.4543" stroke="white" stroke-width="1.4"/>
<path d="M22.7043 31.8V25.9291C22.7043 24.4487 23.9131 23.2486 25.4043 23.2486H31.6047" stroke="#262D37" stroke-width="2.6"/>
<path fill-rule="evenodd" clip-rule="evenodd" d="M23.4397 31.7986V26.5631C23.4397 25.0728 24.6478 23.8646 26.1381 23.8646H31.6605" fill="black" fill-opacity="0.01"/>
<path d="M23.4397 31.7986V26.5631C23.4397 25.0728 24.6478 23.8646 26.1381 23.8646H31.6605" stroke="white" stroke-width="1.4"/>
<path fill-rule="evenodd" clip-rule="evenodd" d="M28.1825 20.3783C29.6677 20.3783 30.8717 19.1743 30.8717 17.6891C30.8717 16.204 29.6677 15 28.1825 15C26.6974 15 25.4934 16.204 25.4934 17.6891C25.4934 19.1743 26.6974 20.3783 28.1825 20.3783Z" fill="black" fill-opacity="0.01" stroke="white" stroke-width="1.4"/>
<path fill-rule="evenodd" clip-rule="evenodd" d="M19.3981 20.4464C20.8833 20.4464 22.0873 19.2424 22.0873 17.7573C22.0873 16.2721 20.8833 15.0681 19.3981 15.0681C17.913 15.0681 16.709 16.2721 16.709 17.7573C16.709 19.2424 17.913 20.4464 19.3981 20.4464Z" fill="black" fill-opacity="0.01" stroke="white" stroke-width="1.4"/>
</svg>
