<svg width="17" height="20" viewBox="0 0 17 20" fill="none" xmlns="http://www.w3.org/2000/svg">
<path d="M1.37531 6.69976L7.8753 1.49976C8.24052 1.20758 8.75948 1.20758 9.12469 1.49976L15.6247 6.69976C15.8619 6.88953 16 7.17684 16 7.48063V18C16 18.5523 15.5523 19 15 19H11C10.4477 19 10 18.5523 10 18V15C10 14.4477 9.55228 14 9 14H8C7.44771 14 7 14.4477 7 15V18C7 18.5523 6.55228 19 6 19H2C1.44772 19 1 18.5523 1 18V7.48062C1 7.17684 1.13809 6.88953 1.37531 6.69976Z" stroke="white" stroke-width="1.8"/>
</svg>
